<?xml version="1.0" encoding="UTF-8" standalone="no"?>
<!-- Created with Inkscape (http://www.inkscape.org/) -->

<svg
   xmlns:dc="http://purl.org/dc/elements/1.1/"
   xmlns:cc="http://creativecommons.org/ns#"
   xmlns:rdf="http://www.w3.org/1999/02/22-rdf-syntax-ns#"
   xmlns:svg="http://www.w3.org/2000/svg"
   xmlns="http://www.w3.org/2000/svg"
   xmlns:sodipodi="http://sodipodi.sourceforge.net/DTD/sodipodi-0.dtd"
   xmlns:inkscape="http://www.inkscape.org/namespaces/inkscape"
   version="1.1"
   id="svg815"
   width="771"
   height="204"
   viewBox="0 0 771 204"
   sodipodi:docname="bismallah.svg"
   inkscape:version="0.92.4 (5da689c313, 2019-01-14)">
  <metadata
     id="metadata821">
    <rdf:RDF>
      <cc:Work
         rdf:about="">
        <dc:format>image/svg+xml</dc:format>
        <dc:type
           rdf:resource="http://purl.org/dc/dcmitype/StillImage" />
        <dc:title></dc:title>
      </cc:Work>
    </rdf:RDF>
  </metadata>
  <defs
     id="defs819" />
  <sodipodi:namedview
     pagecolor="#ffffff"
     bordercolor="#666666"
     borderopacity="1"
     objecttolerance="10"
     gridtolerance="10"
     guidetolerance="10"
     inkscape:pageopacity="0"
     inkscape:pageshadow="2"
     inkscape:window-width="1920"
     inkscape:window-height="1017"
     id="namedview817"
     showgrid="false"
     inkscape:zoom="1.8677043"
     inkscape:cx="385.5"
     inkscape:cy="102"
     inkscape:window-x="-8"
     inkscape:window-y="32"
     inkscape:window-maximized="1"
     inkscape:current-layer="svg815" />
  <path
     style="fill:#000000"
     d="m 310.26683,201.84803 c -47.49981,-1.86057 -86.62161,-7.56231 -130.80224,-19.06353 -26.57412,-6.91786 -24,-6.543 -24,-3.49496 0,3.28857 -3.99211,6.10941 -7.42632,5.24748 -3.41198,-0.85635 -6.12689,-5.09492 -8.07235,-12.60272 -3.24443,-12.52067 -6.86859,-15.99494 -16.69173,-16.00139 -10.43611,-0.007 -33.689848,10.26397 -52.234373,23.07115 -14.210597,9.81408 -20.816099,12.92335 -27.457199,12.92432 -12.428539,0.002 -17.479685,-9.06603 -14.84643,-26.65243 l 0.771604,-5.15321 -3.733046,1.90321 c -12.266657,6.2539 -25.74548743,-4.59094 -25.59931593,-20.59678 0.081353,-8.90819 1.53016503,-13.17954 11.36296393,-33.5 4.923547,-10.175003 9.346813,-20.525003 9.829481,-23.000003 0.859149,-4.4055 0.879879,-4.35143 0.987143,2.57485 0.130312,8.41447 -2.006091,15.287493 -10.25836,33.002133 -7.0963563,15.23331 -9.4349794,23.976 -7.4954747,28.021 1.8602456,3.87971 5.4603927,5.55652 10.3634007,4.8269 4.618319,-0.68726 70.362495,-34.90297 71.185449,-37.04756 0.291138,-0.75869 -0.229351,-5.20287 -1.156642,-9.87594 -1.349665,-6.80164 -1.483318,-9.798263 -0.670012,-15.022293 1.779277,-11.42866 8.217873,-22.864 14.570819,-25.87867 6.057422,-2.87443 10.170592,-0.064 16.829742,11.49942 4.05807,7.04673 13.68785,15.33675 23.04541,19.83921 17.45746,8.399773 36.98855,11.496083 72.19524,11.445263 28.64399,-0.0413 45.46532,-1.83714 78.54448,-8.38517 15.21767,-3.012353 61.6373,-14.260233 76.69794,-18.584573 l 2.24242,-0.64387 -2.49242,-2.96207 c -1.83447,-2.18015 -2.49242,-4.12974 -2.49242,-7.38536 0,-2.4328 0.3375,-4.43039 0.75,-4.4391 0.4125,-0.009 6.2381,1.8907 12.94577,4.2209 6.70767,2.3302 12.44893,3.98356 12.75836,3.67414 0.30942,-0.30942 0.11691,-9.74633 -0.42779,-20.9709 -1.49773,-30.86321 -1.34039,-44.400328 0.55876,-48.0728723 0.8718,-1.685883 1.94988,-2.676036 2.39573,-2.20034 0.74486,0.79472 9.01917,27.1021123 9.01917,28.6756023 0,0.37912 -1.125,0.6893 -2.5,0.6893 h -2.5 v 14.85331 c 0,8.16932 0.29419,17.66801 0.65377,21.10821 0.83602,7.99863 1.84053,8.64103 20.23853,12.94279 l 13.9515,3.2621 -2.76369,4.6668 c -3.1177,5.26457 -3.05677,5.25331 -14.08011,2.60114 -5.71148,-1.37415 -11.55399,-1.80467 -24.5,-1.80533 -20.10592,-0.001 -26.07556,0.92311 -63.5,9.830173 -14.575,3.46887 -32.09341,7.52122 -38.92981,9.00523 -15.3588,3.33401 -21.34534,5.53596 -29.06381,10.69015 -14.41211,9.62404 -20.19916,27.00214 -12.0348,36.13965 2.61172,2.92303 3.38567,3.20578 8.77481,3.20578 6.4856,0 5.31461,0.60019 25.73259,-13.1891 14.38048,-9.71186 27.47352,-16.27691 43.21577,-21.66905 23.94299,-8.20111 30.30525,-12.64292 30.30525,-21.15759 0,-3.881 0.31056,-4.524103 2.44316,-5.059353 3.47777,-0.87287 4.55823,0.16887 4.54707,4.384113 -0.0143,5.39563 -4.08195,13.25768 -9.06689,17.5246 -5.34914,4.57867 -10.36365,6.94665 -28.92334,13.65834 -17.90599,6.4753 -21.41623,8.23753 -36.38653,18.267 -15.96997,10.6992 -23.33547,14.08276 -31.71151,14.56762 -9.65705,0.55902 -15.39673,-2.93838 -16.55709,-10.08885 -0.61098,-3.76499 4.28653,-25.19151 7.7893,-34.07813 1.06653,-2.7058 1.81014,-5.02267 1.65248,-5.14861 -0.15766,-0.12595 -6.36165,0.66396 -13.78665,1.75534 -10.25458,1.50729 -19.26963,2.01292 -37.5,2.10327 -26.17502,0.12972 -32.65724,-0.81016 -48.33016,-7.00757 -15.39562,-6.08776 -29.6976,-17.353583 -39.17943,-30.862033 -4.32044,-6.15519 -8.00445,-7.04197 -12.731314,-3.06457 -4.233586,3.56233 -6.259102,8.41829 -6.259102,15.00554 0,10.019053 3.92413,15.051083 16.729656,21.452903 6.56814,3.2836 8.89323,5.81675 9.78294,10.6584 0.95321,5.18722 -0.4104,5.84029 -7.32841,3.50978 -11.166694,-3.76179 -24.423296,-2.36034 -38.184186,4.03673 -9.643908,4.48319 -28.204509,17.19059 -32.899642,22.52455 -5.163676,5.86624 -7.529326,13.06989 -6.070835,18.48631 1.093743,4.06185 5.047046,7.89036 8.147554,7.89036 2.474826,0 27.959695,-12.78611 43.322923,-21.7357 16.02938,-9.33766 22.957806,-12.7601 29.941796,-14.7904 6.50355,-1.89064 16.61368,-2.17175 20.79239,-0.57815 2.42511,0.92485 2.88314,0.75842 4.05193,-1.47229 l 1.31774,-2.515 3.22242,4.97303 c 3.50884,5.41507 9.84613,11.12266 17.67373,15.91761 19.08139,11.68867 63.23292,21.70025 116.5,26.41695 19.40702,1.71846 113.57631,1.68831 140,-0.0448 96.01773,-6.2978 171.75225,-17.21869 246.1684,-35.49737 l 13.6684,-3.35734 0.61961,3.30283 c 0.7893,4.20734 5.57816,9.02007 10.26225,10.31341 4.95626,1.36849 10.06967,-0.99069 17.93954,-8.2768 3.36001,-3.11078 6.30853,-5.65596 6.55226,-5.65596 0.24374,0 0.24489,1.35085 0.003,3.00188 -1.02447,6.98017 6.19815,10.91506 13.49348,7.35125 2.522,-1.232 4.81668,-3.57111 6.84619,-6.97873 l 3.05271,-5.12559 3.26622,3.89043 c 3.75987,4.47844 9.17028,7.52401 15.03119,8.46121 5.62053,0.89876 7.10016,-0.5574 7.08531,-6.97289 -0.0135,-5.85116 -1.27179,-10.80132 -6.50445,-25.58959 -4.07839,-11.52612 -5.54894,-23.32045 -3.5471,-28.44884 l 1.13625,-2.910883 3.55121,3.410883 c 4.81075,4.62062 8.0413,10.87395 6.21549,12.03121 -0.73674,0.46697 -2.12703,0.85593 -3.08953,0.86435 -0.9625,0.008 -1.75,0.15418 -1.75,0.32391 0,0.16972 1.3929,4.10722 3.09532,8.75 3.75633,10.24406 7.88324,27.87078 7.89562,33.72352 0.0195,9.19872 -4.20253,14.3221 -12.35978,14.99856 -6.23048,0.51668 -12.18962,-1.69808 -17.78311,-6.60923 l -3.55034,-3.11725 -2.39886,2.61381 c -4.73102,5.15445 -10.91923,8.33197 -16.22698,8.33197 -4.37211,0 -5.32415,-0.4114 -8.33174,-3.60038 l -3.3956,-3.60038 -5.22248,3.97502 c -6.8741,5.23213 -8.93674,6.22648 -12.90674,6.222 -6.22547,-0.007 -12.81574,-6.15035 -12.81574,-11.9466 0,-1.12731 -0.38184,-2.04966 -0.84852,-2.04966 -0.88549,0 -9.20808,1.82842 -42.65148,9.37026 -85.16614,19.20586 -160.72129,28.83701 -248,31.613 -34.08701,1.08417 -42.56937,1.07656 -71.69776,-0.0644 z m 312.19776,-1.20858 c 0,-0.24907 5.13963,-3.94871 11.4214,-8.22144 10.53875,-7.16824 11.94911,-7.8326 18.25,-8.59689 12.30506,-1.49259 14.8124,-2.06657 16.0786,-3.68071 1.10451,-1.40803 1.25,-1.33847 1.25,0.59763 0,3.28875 -3.67358,6.48668 -6.77124,5.89453 -1.41653,-0.27079 -4.35407,0.13517 -6.52786,0.90213 -2.17379,0.76696 -5.80828,1.40435 -8.07663,1.41643 -4.16612,0.0222 -10.53083,2.40622 -15.44691,5.78594 -4.4692,3.07252 -10.17736,6.38297 -10.17736,5.90238 z m 72.01531,-1.35329 c 0.008,-0.47135 0.38199,-1.43488 0.83016,-2.14119 0.9989,-1.57428 37.20008,-17.50359 37.98808,-16.71558 0.31014,0.31013 -0.76304,1.88449 -2.38483,3.49857 -1.95743,1.94812 -8.15944,4.99676 -18.44872,9.06861 -8.525,3.37365 -16.0625,6.36176 -16.75,6.64024 -0.6875,0.27849 -1.24311,0.12069 -1.23469,-0.35065 z M 83.64126,196.37163 c 0.414079,-1.99474 32.82333,-21.83607 32.82333,-20.09484 0,0.71707 -1.0125,2.21088 -2.25,3.3196 -2.09883,1.88041 -29.40938,18.33278 -30.431985,18.33278 -0.255568,0 -0.319173,-0.70089 -0.141345,-1.55754 z m 674.51874,-4.29118 -5.80459,-2.65128 3.1411,-4.25 c 1.72761,-2.3375 3.58125,-4.25 4.11921,-4.25 0.53796,0 3.19713,0.9546 5.90928,2.12133 l 4.93117,2.12134 -2.21193,3.9356 c -1.21656,2.16458 -2.67717,4.31556 -3.24579,4.77994 -0.59875,0.489 -3.47676,-0.27146 -6.83845,-1.80693 z M 278.46459,178.50688 c 0,-1.92812 0.88962,-2.49064 18.25,-11.53966 11.65577,-6.07551 15.75,-7.79484 15.75,-6.61404 0,2.48845 -2.41161,4.03537 -18.75,12.02713 -9.64095,4.71578 -15.25,6.96917 -15.25,6.12657 z m 52.09195,-1.7412 c -6.31969,-4.33269 -7.59195,-7.04134 -7.59195,-16.16336 0,-6.86538 0.43338,-9.05319 2.70851,-13.67315 1.48968,-3.025 4.0933,-7.075 5.78582,-9 l 3.07732,-3.5 -2.54815,5.24107 c -3.4234,7.04132 -5.80024,17.66142 -5.00551,22.3654 0.77869,4.60903 4.43549,8.47462 8.78961,9.29146 3.53364,0.66291 12.90026,-1.43436 17.99294,-4.02878 8.05974,-4.10596 42.0063,-27.48658 59.19946,-40.77349 21.49141,-16.60861 38.35786,-28.31686 49.79533,-34.566613 l 7.79534,-4.25959 -4.29534,-3.57279 c -2.36243,-1.96503 -7.78283,-7.00634 -12.04533,-11.20291 -6.68356,-6.58018 -7.74949,-8.10236 -7.74626,-11.06194 0.005,-4.47412 3.07237,-9.3974 7.20204,-11.55913 4.36925,-2.28714 17.42238,-2.94674 27.99208,-1.41449 10.37893,1.5046 56.44276,10.70165 57.79956,11.54021 1.11091,0.68657 1.33256,4.47809 0.40336,6.89957 -1.07633,2.80485 -6.82764,5.4921 -26.96918,12.60111 -10.90941,3.8505 -19.96946,7.00091 -20.13344,7.00091 -0.85514,0 -0.0704,5.30283 1.70184,11.500003 1.1,3.8465 2,8.90757 2,11.24682 0,4.20544 -0.0398,4.25318 -3.54966,4.25318 -6.77734,0 -13.30519,-5.4458 -15.56363,-12.9838 l -1.16658,-3.893673 -6.11006,2.300033 c -16.58267,6.24228 -31.37032,15.75211 -61.56337,39.59098 -24.54403,19.37869 -35.94722,27.09327 -50.46403,34.14029 -9.11178,4.42322 -12.006,5.3592 -17.5,5.65945 -5.61436,0.30683 -7.08399,0.016 -9.99072,-1.97677 z M 499.12556,76.330357 c 9.26147,-3.62935 17.96403,-7.03599 19.33903,-7.57032 3.63146,-1.4112 1.47635,-2.30107 -11.53309,-4.76217 -22.39631,-4.23689 -52.45493,-6.51514 -53.95414,-4.08937 -1.27807,2.06796 1.90733,5.22218 12.25901,12.13903 5.90052,3.94264 11.80141,8.00391 13.11308,9.02504 1.31167,1.02113 2.73411,1.8566 3.16097,1.8566 0.42686,0 8.35368,-2.96947 17.61514,-6.59881 z m 1.89573,93.376303 c -2.16325,-3.08847 -1.94392,-10.09815 0.46362,-14.81733 1.11118,-2.17809 2.25201,-3.96016 2.53519,-3.96016 0.28317,0 0.049,0.87042 -0.52033,1.93426 -1.63382,3.05282 -1.21002,10.29992 0.83714,14.31531 1.02978,2.01985 1.62978,3.915 1.33334,4.21144 -1.16132,1.16132 -3.16444,0.43593 -4.64896,-1.68352 z m -93.5567,0.84314 c 0,-0.22342 4.64516,-3.15544 10.32257,-6.51562 16.229,-9.60512 18.00386,-11.46155 21.63405,-22.62833 3.09534,-9.52154 11.17615,-28.67724 11.82412,-28.02928 0.49007,0.49007 -4.52712,20.20102 -6.42092,25.22575 -2.72246,7.22338 -0.19999,7.72756 7.34448,1.46799 2.71167,-2.24985 4.95662,-5.34186 6.32337,-8.70932 2.41768,-5.95678 5.95948,-9.77353 8.59795,-9.2654 2.4548,0.47275 6.37438,6.51501 6.37438,9.82648 0,4.35015 -3.11673,6.40001 -8.59026,5.64978 -4.55954,-0.62495 -4.74527,-0.5371 -12.76829,6.04008 -4.4778,3.67084 -8.65635,7.28984 -9.28568,8.04223 -1.45764,1.74266 -0.70424,4.64968 1.79008,6.907 1.7191,1.55577 2.58827,1.6269 7.4413,0.60896 8.13558,-1.70645 22.12871,-8.79301 37.91285,-19.20025 14.15706,-9.33442 26.66597,-15.87056 42.90272,-22.41744 16.77405,-6.76354 16.41624,-5.51351 12.55123,-43.848663 -1.67878,-16.65103 -3.52313,-33.1996 -4.09855,-36.7746 -0.57542,-3.575 -1.27265,-7.92073 -1.54938,-9.65717 -0.3625,-2.27456 0.12797,-4.01082 1.75444,-6.21073 1.24168,-1.67946 2.58795,-2.8494 2.99171,-2.59985 0.66196,0.4091 9.94783,22.78672 9.94783,23.97282 0,0.27221 -1.35,0.49493 -3,0.49493 -1.65,0 -3.00794,0.3375 -3.01764,0.75 -0.01,0.4125 0.94488,13.57824 2.1213,29.2572 3.32591,44.326693 3.19226,44.605383 -27.60366,57.563153 -16.8945,7.10858 -24.88256,11.61457 -38.78753,21.87971 -13.8222,10.20404 -20.96388,14.07901 -29.08896,15.78327 -8.72109,1.82926 -13.49057,-0.71988 -15.8059,-8.44776 -0.6238,-2.08207 -1.54754,-3.78557 -2.05275,-3.78557 -0.50522,0 -5.72149,2.67626 -11.59172,5.94725 -10.36236,5.77407 -18.17314,9.50188 -18.17314,8.67338 z m 60.8,-38.82063 c 1.67571,-1.67571 1.50323,-2.56735 -0.72756,-3.76123 -2.45601,-1.31442 -5.07244,-0.33357 -5.07244,1.90155 0,3.15169 3.4135,4.24618 5.8,1.85968 z m 60.54922,37.75085 c -4.84377,-2.10746 -5.2418,-6.04629 -1.4334,-14.18465 1.6963,-3.62491 3.08418,-7.16274 3.08418,-7.86184 0,-2.77868 -7.69446,-2.42578 -9.46188,0.43396 -0.36088,0.58392 -1.06995,1.06168 -1.5757,1.06168 -1.81199,0 1.48233,-5.17863 4.18261,-6.575 3.59888,-1.86105 10.74342,-1.87927 11.45335,-0.0292 0.29459,0.76769 -0.84453,4.12985 -2.53138,7.47148 -7.42263,14.70415 -0.94096,19.23344 15.88194,11.09808 4.58873,-2.21906 8.83495,-3.87072 9.43605,-3.67035 1.92083,0.64027 -12.69634,10.65766 -17.81649,12.20993 -5.95739,1.80609 -7.1624,1.81102 -11.21928,0.0459 z M 53.964584,160.16228 c 2.166179,-2.21182 31.674174,-20.39227 32.216951,-19.84949 1.426367,1.42636 -3.082956,4.75368 -16.560582,12.21963 -19.228811,10.65183 -18.05643,10.08049 -15.656369,7.62986 z m 523.500006,0.45139 c 0,-0.85822 0.68886,-4.53071 1.5308,-8.16109 l 1.53081,-6.60069 -2.92074,-2.45764 c -5.27136,-4.43556 -6.8362,-11.33943 -8.5909,-37.90194 -0.85969,-13.013823 0.23092,-9.992673 1.44385,3.99972 1.59828,18.4377 5.03898,27.43714 10.48987,27.43714 5.30228,0 7.57539,-5.0394 16.00631,-35.48537 3.57541,-12.911623 6.12423,-18.525853 11.08964,-24.426903 6.05118,-7.19143 7.28332,-2.24312 4.38084,17.59358 -3.18435,21.763103 -1.88134,30.339763 5.69794,37.505073 4.77963,4.51858 7.73816,5.1288 13.28886,2.74095 6.32847,-2.72243 9.47431,-6.15904 12.53658,-13.69533 3.06523,-7.54359 3.18993,-12.71018 0.84278,-34.917833 -1.66846,-15.78622 -1.66331,-16.27382 0.20873,-19.75 1.05569,-1.96029 2.19236,-3.56417 2.52594,-3.56417 1.08217,0 4.83992,24.20914 5.4327,35 0.6599,12.012503 1.6516,15.825903 5.63055,21.651113 5.74189,8.40617 18.32515,11.0151 23.59244,4.8915 3.14163,-3.65236 2.89578,-6.22155 -1.68185,-17.57544 -4.08487,-10.131693 -10.03094,-30.718733 -10.03363,-34.739373 -0.002,-3.08793 7.70786,-18.2278 9.28244,-18.2278 0.69391,0 3.72639,1.61065 6.73884,3.57923 16.96898,11.08886 25.17217,26.02749 25.21627,45.920773 0.0373,16.83773 -5.33392,31.24735 -15.30629,41.0626 l -5.01642,4.9374 1.42736,-4 c 0.78505,-2.2 3.65097,-8.31014 6.3687,-13.57809 8.70475,-16.87297 9.58345,-29.86858 2.92984,-43.331243 -5.89603,-11.92981 -21.887,-27.74593 -24.95289,-24.68004 -0.88564,0.88564 -0.44936,2.51113 1.8232,6.79293 3.93032,7.40521 3.89945,7.29644 2.07076,7.29644 -2.36405,0 -1.95012,2.66975 1.86597,12.03494 6.71933,16.490173 7.9508,25.400223 4.8413,35.028253 -4.32,13.37608 -17.73194,18.67029 -27.61125,10.89923 -2.26009,-1.77779 -6.35709,-9.16325 -9.37524,-16.9003 -0.88529,-2.26943 -1.0725,-2.06214 -2.70946,3 -3.14498,9.72553 -11.57484,20.49403 -17.90975,22.87834 -8.35666,3.14526 -15.54111,-0.15225 -20.06994,-9.21165 -3.79779,-7.59706 -4.34952,-15.78026 -2.16012,-32.03869 0.93538,-6.946193 1.41415,-13.093093 1.06391,-13.659783 -0.35023,-0.56669 -1.51684,-1.03034 -2.59247,-1.03034 -3.81419,0 -7.59303,9.140223 -9.92232,24.000003 -2.67333,17.05455 -7.35504,29.92767 -11.58507,31.855 -1.64821,0.75098 -2.41889,1.92369 -2.41889,3.68074 0,4.04822 -2.08189,11.28733 -3.6111,12.55647 -1.08428,0.89987 -1.3889,0.81045 -1.3889,-0.40771 z m 11,-1.45837 c 0,-0.454 3.4875,-3.09733 7.75,-5.87407 9.40308,-6.12549 10.25,-6.61603 10.25,-5.93687 0,0.29327 -4.05,3.25644 -9,6.58481 -4.95,3.32837 -9,5.68013 -9,5.22613 z m -358.34752,-9.99794 c -0.35188,-2.20052 -2.0025,-6.59153 -3.66806,-9.7578 -2.79521,-5.31378 -3.2335,-9.47039 -0.99859,-9.47039 3.27515,0 8.43628,17.63641 6.28571,21.47927 -0.80415,1.43694 -1.0937,1.03436 -1.61906,-2.25108 z m -28.15248,-0.95067 c -2.75,-1.38676 -5.14389,-2.64791 -5.31976,-2.80255 -0.31595,-0.2778 2.89819,-6.72292 4.64357,-9.3115 0.72515,-1.07545 1.90471,-0.82799 6.03868,1.26685 2.82563,1.43185 5.13751,3.06372 5.13751,3.62636 0,1.33344 -3.74585,8.6697 -4.73571,9.27493 -0.42036,0.25701 -3.01429,-0.66733 -5.76429,-2.05409 z m 57.59886,0.12103 c -4.01538,-5.10473 -3.66837,-13.44157 0.93509,-22.4651 2.51324,-4.92635 4.33044,-6.04981 2.4305,-1.50262 -2.41213,5.77306 -1.88067,13.46216 1.37686,19.92027 1.56273,3.09812 2.61273,5.86153 2.33334,6.14092 -1.37213,1.37213 -5.25291,0.22395 -7.07579,-2.09347 z m 90.55613,-0.22729 c -2.32754,-2.5719 -2.14202,-10.29629 0.36533,-15.2111 1.11118,-2.17809 2.25201,-3.96016 2.53519,-3.96016 0.28317,0 0.049,0.87042 -0.52033,1.93426 -1.69929,3.17517 -1.20065,10.82106 0.98514,15.10558 1.94345,3.80947 1.94935,3.96016 0.15499,3.96016 -1.02593,0 -2.61008,-0.82293 -3.52032,-1.82874 z m -171.40499,-1.29336 c -2.3375,-1.07447 -4.25,-2.32987 -4.25,-2.78979 0,-1.57405 5.16959,-10.08811 6.12533,-10.08811 0.87983,0 8.83534,3.7574 9.79425,4.62583 0.23076,0.20899 -0.63366,2.62868 -1.92094,5.37708 -2.60222,5.55585 -3.40281,5.79195 -9.74864,2.87499 z m 546.3067,-3.10041 c -2.30477,-3.29052 -1.89561,-9.27222 1.08919,-15.92322 1.45524,-3.24271 2.84314,-5.69858 3.08422,-5.45749 0.24108,0.24108 -0.59545,3.64812 -1.85896,7.5712 -2.65458,8.24218 -2.05898,10.34536 3.07324,10.85235 3.57674,0.35334 7.32326,-2.20377 6.84263,-4.6703 -0.15786,-0.81014 -1.76373,-1.96987 -3.5686,-2.57718 -3.03539,-1.02137 -3.17398,-1.25137 -1.84725,-3.06577 1.19565,-1.63515 1.90516,-1.79598 4.26376,-0.96651 4.13071,1.4527 5.30262,5.56303 2.8726,10.0753 -3.30722,6.14114 -10.96441,8.42533 -13.95083,4.16162 z m -573.90171,-0.60623 c -2.97288,-3.28499 -1.36989,-15.37532 2.34274,-17.66986 0.91685,-0.56664 0.94104,-0.25551 0.10204,1.31218 -1.7241,3.22151 -1.29273,9.88786 0.92055,14.22626 1.94345,3.80947 1.94935,3.96016 0.15499,3.96016 -1.02593,0 -2.61008,-0.82293 -3.52032,-1.82874 z m 403.90171,-4.39377 c -2.10723,-3.0085 -1.92492,-9.36951 0.41637,-14.52749 1.06103,-2.3375 2.19198,-4.25 2.51322,-4.25 0.32124,0 0.11824,0.87042 -0.45111,1.93426 -1.67034,3.12106 -1.19255,10.33419 0.96482,14.56574 2.43,4.76631 2.42665,4.5 0.0567,4.5 -1.06881,0 -2.64381,-1.00013 -3.5,-2.22251 z m -428,-3 c -2.09338,-2.98872 -1.92797,-8.36281 0.41637,-13.52749 2.08944,-4.60314 3.59264,-5.86813 2.00218,-1.6849 -1.52391,4.00817 -1.15549,8.65849 1.02475,12.9349 2.43,4.76631 2.42665,4.5 0.0567,4.5 -1.06881,0 -2.64381,-1.00013 -3.5,-2.22251 z M 393.1041,124.15944 c -0.33843,-5.35165 -0.71133,-14.45527 -0.82866,-20.23027 l -0.21332,-10.500003 3.20123,-0.31336 3.20124,-0.31336 v 16.595483 c 0,11.95097 -0.39124,17.53185 -1.39797,19.94128 -2.51202,6.01211 -3.32169,4.95372 -3.96252,-5.17977 z m 186.90732,7.51973 c -0.21473,-0.6875 -0.67335,-6.875 -1.01917,-13.75 -0.82572,-16.41564 -3.09493,-44.612303 -5.17039,-64.246153 -1.59403,-15.07959 -1.58743,-15.91704 0.15595,-19.78316 1.94139,-4.30524 2.61241,-4.22155 4.24431,0.52931 0.56676,1.65 2.62784,7.37118 4.58017,12.71374 l 3.54969,9.71374 -2.9437,-0.58874 -2.94369,-0.58874 0.0552,5.875 c 0.0303,3.23125 0.87155,20.05 1.86937,37.375003 1.75714,30.50874 1.64641,34 -1.07835,34 -0.49992,0 -1.08462,-0.5625 -1.29934,-1.25 z m -539.046836,-8.6434 c 5.736771,-3.29822 8.980656,-6.51986 8.061828,-8.00656 -0.908533,-1.47004 -7.345648,-3.08795 -12.311828,-3.09446 -2.397736,-0.003 -4.25,-0.48073 -4.25,-1.0958 0,-2.5318 5.561846,-8.86765 7.802595,-8.88843 3.187169,-0.0296 16.502597,3.01057 17.574189,4.01246 2.949178,2.75736 -5.763922,13.81322 -13.876784,17.60794 -7.007308,3.27761 -9.010276,2.92032 -3,-0.53515 z m 331.314806,0.85856 c -2.02686,-1.07055 -3.94778,-2.37131 -4.2687,-2.89057 -0.85641,-1.3857 3.62233,-10.07459 5.193,-10.07459 1.09568,0 8.92471,3.514 10.07813,4.52349 0.75372,0.65966 -4.96896,10.47228 -6.08408,10.43231 -0.67823,-0.0243 -2.89149,-0.92009 -4.91835,-1.99064 z m 253.86785,-8.93046 c -3.15082,-3.74453 -4.09736,-9.22198 -2.6837,-15.53002 1.23455,-5.508793 5.31599,-13.574733 8.18085,-16.167393 1.41024,-1.27625 1.20183,-0.48281 -0.82632,3.14594 -4.00119,7.15892 -3.86979,14.802203 0.41052,23.879043 1.7798,3.77425 3.236,7.03675 3.236,7.25 0,0.21325 -1.31,0.38773 -2.91111,0.38773 -1.99936,0 -3.69257,-0.92872 -5.40624,-2.9653 z M 67.387661,113.00609 c -2.844351,-2.84435 -3.433563,-5.23379 -2.978044,-12.07692 0.295302,-4.436243 2.994786,-11.420243 5.6046,-14.500003 l 2.542227,-3 -1.762235,3.5 c -2.820372,5.60158 -2.399834,15.292013 0.947774,21.839523 1.501494,2.93673 2.476768,5.74923 2.167278,6.25 -1.051819,1.70187 -3.59061,0.91839 -6.5216,-2.0126 z m 659.602479,-4.09318 c -3.55694,-5.70676 -3.04347,-5.26511 -6.25772,-5.38258 -2.46486,-0.0901 -2.80228,-0.5196 -3.08253,-3.92383 -0.30149,-3.662233 -0.19657,-3.809123 2.5,-3.499993 2.07505,0.23787 3.65502,1.58003 6.0125,5.107523 1.75879,2.63168 3.55879,4.68545 4,4.56394 0.44121,-0.12151 2.08455,-3.54228 3.65187,-7.60171 3.32444,-8.610483 5.90663,-10.619633 10.10937,-7.865893 1.64366,1.07697 2.54096,2.58374 2.54096,4.26685 0,2.30636 -0.31241,2.5389 -2.75,2.04698 -1.5125,-0.30523 -3.50931,-0.84881 -4.43736,-1.20795 -1.88305,-0.72871 -4.76492,4.072283 -7.79444,12.984973 l -1.698,4.99543 z m -206.12816,-0.5 c -2.21219,-3.37623 -1.44019,-11.215713 1.54047,-15.643263 1.23686,-1.83727 1.90201,-2.44048 1.47812,-1.34048 -1.82257,4.72952 -1.60469,11.209783 0.51673,15.368093 2.08813,4.09309 2.08917,4.13191 0.11067,4.13191 -1.0985,0 -2.7392,-1.13232 -3.64599,-2.51626 z M 162.19749,99.17917 c -2.64739,-2.937663 -3.04403,-6.797203 -1.25278,-12.190153 1.94826,-5.86564 3.84333,-7.81515 2.35414,-2.42176 -1.02857,3.72518 0.40283,11.77237 2.30291,12.94669 1.36579,0.844103 1.00278,3.415223 -0.48218,3.415223 -0.73976,0 -2.0547,-0.7875 -2.92209,-1.75 z m 28.35727,-9.257873 c -2.09626,-3.40686 -3.7176,-5.01441 -4.86682,-4.82543 -2.72994,0.4489 -4.22335,-1.04535 -4.22335,-4.22572 0,-2.38778 0.42323,-2.9381 2.25,-2.92567 3.1407,0.0214 4.04135,0.79305 7.55954,6.47693 l 3.09008,4.99225 1.55019,-3.71013 c 0.8526,-2.04057 1.55019,-3.95448 1.55019,-4.25314 0,-2.09983 4.55246,-9.56179 6.14117,-10.06603 2.83282,-0.8991 6.85883,2.07564 6.85883,5.06786 0,2.76302 -1.49646,3.11913 -5.48007,1.30408 -3.38292,-1.54136 -3.96957,-0.87254 -7.99784,9.11808 l -3.28843,8.15573 z m 39.13309,3.33668 c -1.60063,-0.64352 -4.75461,-6.78825 -5.67628,-11.05878 -1.52356,-7.05938 3.32127,-19.94391 11.92679,-31.71861 2.18558,-2.99046 4.12793,-5.28305 4.31634,-5.09464 0.18841,0.18841 -1.93083,4.3754 -4.70942,9.30444 -6.39735,11.34845 -7.91804,17.29897 -5.74806,22.49246 0.87675,2.09835 2.69734,4.25848 4.14504,4.9181 2.3565,1.07369 2.92616,0.83978 6.5336,-2.68279 2.17361,-2.12247 4.16675,-3.6443 4.4292,-3.38185 0.87462,0.87462 -4.1329,10.47296 -7.41253,14.20826 -3.06294,3.48849 -4.87895,4.18966 -7.80468,3.01341 z m 207.06519,-2.83932 c -4.20861,-2.94783 -3.80106,-12.62061 0.77929,-18.49548 l 1.94446,-2.49401 -1.5061,3.71788 c -1.98067,4.88939 -1.87431,7.3737 0.54394,12.70404 2.22915,4.91354 1.48545,6.84188 -1.76159,4.56757 z m -166.45352,-3.94648 c -1.9871,-3.27604 -3.38624,-4.47635 -5.5,-4.71839 -2.38688,-0.27332 -2.88454,-0.83936 -3.1488,-3.5815 -0.61771,-6.40967 5.0614,-5.14836 9.00461,1.99991 1.29155,2.34133 2.7895,4.24727 3.32877,4.23541 0.53927,-0.0119 2.01604,-2.9269 3.28171,-6.47786 1.26568,-3.55097 3.02292,-7.25376 3.90499,-8.22844 3.13847,-3.46797 9.29379,-1.22069 9.29379,3.39313 0,1.84499 -0.42765,1.96359 -4.87479,1.35195 l -4.87478,-0.67045 -3.12522,7.5071 c -1.71886,4.1289 -3.12521,7.98838 -3.12521,8.57661 0,2.16808 -1.56965,0.89147 -4.16507,-3.38747 z M 46.573905,77.429167 c -1.312984,-2.475 -2.887211,-4.54784 -3.498283,-4.6063 -0.611071,-0.0585 -2.011038,-0.17096 -3.111038,-0.25 -1.564741,-0.11243 -2.068487,-0.97562 -2.314697,-3.96636 -0.301328,-3.66027 -0.195423,-3.80896 2.492866,-3.5 2.084195,0.23953 3.618603,1.56493 5.955396,5.14418 1.731307,2.65184 3.534517,4.70561 4.007133,4.56393 0.472616,-0.14167 2.141651,-3.57893 3.708967,-7.63836 3.324441,-8.61048 5.90663,-10.61963 10.109371,-7.86589 2.710893,1.77625 3.410893,5.34775 1.213413,6.191 -0.730154,0.28019 -2.58489,0.0314 -4.121637,-0.55288 -3.883253,-1.47641 -4.946371,-0.30936 -8.256707,9.06392 -1.536758,4.35136 -3.019878,7.91273 -3.295822,7.91416 -0.275945,10e-4 -1.575977,-2.0224 -2.888962,-4.4974 z m 305.877255,-4.625 c -0.014,-7.68123 -2.01993,-34.05066 -4.09977,-53.89451 -1.19955,-11.4449043 -1.19176,-11.5435883 1.20292,-15.2376213 1.32565,-2.044961 2.64257,-3.723682 2.92647,-3.73049 0.72698,-0.01743 10.05842,31.2463413 9.49454,31.8102213 -0.25432,0.25432 -1.15915,-0.11585 -2.01073,-0.8226 -0.85158,-0.70675 -1.83648,-0.99685 -2.18867,-0.64466 -0.35219,0.35219 -0.0423,11.21728 0.68867,24.14466 0.73096,12.92738 1.10967,23.72366 0.84159,23.99175 -0.26808,0.26808 -1.91711,0.77335 -3.66451,1.12283 l -3.17708,0.63542 z m 207.01343,5.125 c -3.37466,-3.37466 -2.00878,-16.02244 1.99773,-18.4986 0.91685,-0.56664 0.94104,-0.25551 0.10204,1.31218 -1.77047,3.30815 -1.32203,11.30965 0.8318,14.84192 2.7453,4.50227 0.78996,6.06603 -2.93157,2.3445 z m -404.85703,-2.6836 c 0.19637,-0.45417 1.2238,-3.00864 2.28319,-5.67661 1.80555,-4.5471 2.40039,-5.06899 9.5,-8.33481 15.68848,-7.21669 40.20297,-17.40307 58.07384,-24.13112 20.06435,-7.55385 101.54706,-36.1738603 102.98892,-36.1738603 0.48626,0 0.34062,1.877178 -0.32365,4.171506 l -1.20777,4.1715043 -27.47875,9.17328 c -34.70695,11.58628 -50.79618,17.44034 -78.97875,28.73637 -20.99998,8.41713 -49.04383,20.69543 -60.3216,26.41031 -2.69085,1.36355 -4.73179,2.1076 -4.53543,1.65343 z m 180.35703,-7.92777 c -6.6,-1.85026 -12.74997,-3.36963 -13.66659,-3.37637 -0.91663,-0.007 -2.49978,1.13152 -3.51812,2.52947 l -1.85152,2.54173 -9.41252,-1.52236 c -5.17688,-0.8373 -9.86268,-1.97253 -10.41289,-2.52274 -0.64734,-0.64734 -0.67182,-2.31857 -0.0694,-4.73573 2.40629,-9.65446 15.39398,-11.34299 39.92441,-5.19058 10.24317,2.56907 11.72343,3.96327 11.31265,10.655 l -0.30605,4.98569 -12,-3.36411 z m 259.16667,1.9447 c -1.94225,-1.94225 -0.40187,-6.41154 3.83333,-11.12211 l 4.5,-5.00508 v -9.60307 c 0,-5.28169 0.41401,-9.60307 0.92001,-9.60307 0.50601,0 3.20601,2.56483 6,5.69962 7.39251,8.2942 6.68467,13.30038 -1.88058,13.30038 -4.03447,0 -12.33517,7.90454 -11.85397,11.28823 0.75679,5.32155 11.60125,1.85908 27.43361,-8.75913 7.28059,-4.88284 12.1118,-6.84796 15.61358,-6.35093 1.67326,0.23751 -1.58754,2.5049 -12.44492,8.65357 -8.09175,4.58245 -16.98407,9.19495 -19.76073,10.25 -5.02331,1.90871 -11.08901,2.52291 -12.36033,1.25159 z m 18.33333,-20.83333 c 0.99502,-1.19893 0.98666,-1.81115 -0.0417,-3.05019 -1.09054,-1.31402 -1.49566,-1.34107 -2.65919,-0.17754 -1.33973,1.33978 -0.84858,4.72773 0.68543,4.72773 0.42382,0 1.33077,-0.675 2.01546,-1.5 z m -5,-2.5904 c 0,-1.97107 -2.53562,-3.70732 -3.70557,-2.53737 -0.34062,0.34063 -0.0943,1.77159 0.54738,3.17993 1.28774,2.82628 3.15819,2.44572 3.15819,-0.64256 z m -343.1018,15.46774 c -0.79278,-0.95524 -1.43799,-4.55422 -1.56866,-8.75 -0.2064,-6.62724 -0.16191,-6.79758 0.63415,-2.42762 0.47087,2.58485 1.14823,5.17235 1.50524,5.75 0.96552,1.56225 4.77086,1.27105 7.39328,-0.56576 2.12903,-1.49124 2.25333,-2.08044 1.60936,-7.62895 -0.85681,-7.38233 0.33232,-7.06746 4.50168,1.192 2.96889,5.88133 4.81544,7.45504 7.52675,6.41462 2.02937,-0.77875 1.88718,-2.68238 -0.55843,-7.47617 -2.74978,-5.39001 -1.95009,-7.25612 0.9853,-2.29924 3.12926,5.28427 3.78174,10.68336 1.67892,13.89267 -2.07241,3.16289 -4.0519,3.18096 -8.12513,0.0742 l -3.20812,-2.44695 -2.82336,2.94695 c -3.17118,3.31 -7.41467,3.89839 -9.55098,1.3243 z m -137.06327,-3.83433 c -1.9871,-3.27604 -3.38624,-4.47635 -5.5,-4.71839 -2.38688,-0.27332 -2.88454,-0.83936 -3.1488,-3.5815 -0.61771,-6.40968 5.0614,-5.14836 9.00461,1.99991 1.29155,2.34133 2.77276,4.18028 3.29158,4.08656 0.51881,-0.0937 2.007,-3.01873 3.30707,-6.5 1.30008,-3.48128 3.07406,-7.11709 3.94218,-8.07959 3.11164,-3.44992 9.26843,-1.18125 9.26843,3.41527 0,1.84499 -0.42765,1.96359 -4.87479,1.35195 l -4.87478,-0.67045 -3.12522,7.5071 c -1.71886,4.1289 -3.12521,7.98838 -3.12521,8.57661 0,2.16808 -1.56965,0.89147 -4.16507,-3.38747 z m 49.56477,-10.30832 c -1.91872,-1.28117 -3.3997,-4.98796 -3.3997,-8.50923 0,-3.09244 5.67955,-16.37924 6.60559,-15.4532 0.21474,0.21474 -0.72987,3.59702 -2.09914,7.51617 -3.00203,8.59247 -2.3363,12.21157 2.24629,12.21157 3.29832,0 7.24726,-2.49457 7.24726,-4.57814 0,-0.80561 -1.2375,-1.99621 -2.75,-2.64578 -1.5125,-0.64957 -2.87309,-1.25052 -3.02354,-1.33543 -0.15044,-0.0849 0.0102,-0.8938 0.35699,-1.79752 1.50799,-3.92975 8.41655,-0.4533 8.41655,4.23527 0,6.76114 -8.86955,13.51509 -13.6003,10.35629 z m 140.12005,-10.20088 c -2.33741,-4.00219 -3.46131,-4.99072 -5.95071,-5.23395 -2.78369,-0.27198 -3.06904,-0.62528 -3.06904,-3.79986 0,-3.06667 0.30952,-3.5 2.5,-3.5 1.8728,0 3.30226,1.20042 5.6978,4.78486 1.75879,2.63168 3.52338,4.88168 3.92131,5 0.39793,0.11833 1.99479,-2.88679 3.54859,-6.67805 3.48328,-8.49917 4.37737,-9.60681 7.75474,-9.60681 3.32182,0 5.07756,1.66445 5.07756,4.81354 0,2.28113 -0.23844,2.37779 -4.34588,1.76184 -5.32944,-0.7992 -5.79616,-0.31703 -9.48375,9.79758 l -2.76896,7.59493 z m 56.97691,-1.0375 c -2.45446,-2.71214 -2.25483,-9.58986 0.43117,-14.85484 2.69953,-5.29153 3.22901,-5.27569 1.39699,0.0418 -1.27845,3.71074 -1.25913,4.69906 0.17104,8.75 0.88676,2.51171 1.86544,5.35425 2.17485,6.31675 0.78073,2.4287 -1.89362,2.26616 -4.17405,-0.25369 z m 67.50334,0.4049 c 0,-4.2813 14.8615,-12.88914 33.5,-19.40334 8.6698,-3.03012 16.57727,-4.25393 18.03931,-2.79189 0.38542,0.38542 0.33883,2.40925 -0.10353,4.49739 -0.62407,2.94586 -0.89064,3.29244 -1.18959,1.54663 -0.47037,-2.74681 -1.85427,-2.79757 -10.24937,-0.37596 -11.22242,3.23716 -22.48246,8.00868 -31.04851,13.15703 -4.54714,2.73291 -8.42071,4.96893 -8.60792,4.96893 -0.18722,0 -0.34039,-0.71946 -0.34039,-1.59879 z m 52.57143,0.0274 c -0.91294,-0.91294 -1.57143,-3.27416 -1.57143,-5.63486 v -4.06343 l 2.07258,2.63486 c 2.56114,3.25596 4.99954,3.33705 8.54859,0.28429 l 2.73271,-2.35057 -1.77551,-8.21753 c -0.97652,-4.51965 -1.49864,-8.49439 -1.16027,-8.83277 1.18646,-1.18645 2.56132,1.36996 3.55515,6.61041 1.32145,6.96797 3.74625,11.91723 6.22391,12.70361 3.46325,1.09919 4.29261,-0.99161 2.37995,-5.99983 -2.48428,-6.50502 -1.49415,-9.3386 1.24493,-3.56275 2.39393,5.04804 2.74314,9.66545 1.01744,13.45295 -1.46657,3.21879 -3.87113,3.23275 -7.66018,0.0445 l -2.97414,-2.50258 -3.50258,3.50258 c -3.79426,3.79426 -6.66162,4.40067 -9.13115,1.93115 z m -70.15949,-12.74161 c 3.25157,-1.80903 6.54681,-4.24531 7.32276,-5.41395 1.26119,-1.89946 1.20214,-2.23648 -0.55679,-3.17783 -1.08218,-0.57917 -4.60242,-1.3251 -7.82275,-1.65763 -8.90449,-0.91947 -8.84952,-0.85871 -5.36221,-5.9273453 3.56021,-5.174581 4.43203,-5.324572 15.50705,-2.667861 5.96172,1.430117 7.04895,2.023166 7.33002,3.9982863 0.71282,5.00912 -8.23998,14.10721 -16.72924,17.00072 -5.90766,2.0136 -5.79645,1.24363 0.31116,-2.15439 z"
     id="path825"
     inkscape:connector-curvature="0" />
</svg>
