<?xml version="1.0" encoding="utf-8"?>
<!DOCTYPE svg>
<svg version="1.1" xmlns="http://www.w3.org/2000/svg"  viewBox="100 -835 1835 850" preserveAspectRatio="none">
  <!-- <rect x="100" y="-835" width="1835" height="850" fill="green" /> -->
  <path d="M103 -333Q103 -454,146.5 -551Q190 -648,259 -714Q328 -780,405.5 -809.5Q483 -839,552 -825.5Q621 -812,664.5 -750Q708 -688,708 -570Q708 -457,658 -360Q608 -263,538 -150Q523 -127,503.5 -131Q484 -135,474.5 -155Q465 -175,480 -196Q566 -322,566 -473Q566 -527,534 -551.5Q502 -576,455 -575.5Q408 -575,361 -554Q314 -533,282 -496Q250 -459,250 -410Q250 -364,313.5 -328Q377 -292,480.5 -265Q584 -238,706 -220.5Q828 -203,947.5 -194.5Q1067 -186,1159 -186Q1314 -186,1456 -198Q1598 -210,1713 -230.5Q1828 -251,1900 -275Q1928 -284,1929.5 -253.5Q1931 -223,1914.5 -185.5Q1898 -148,1870 -134Q1834 -117,1749 -93Q1664 -69,1549 -45.5Q1434 -22,1305 -6Q1176 10,1051 10Q855 10,683.5 -7.5Q512 -25,381.5 -65Q251 -105,177 -171Q103 -237,103 -333z" fill="#850502" />
  <!-- <svg viewBox="100 -835 1835 850" preserveAspectRatio="xMinYMid meet">
    <path d="M1051 10Q855 10,683.5 -7.5Q512 -25,381.5 -65Q251 -105,177 -171Q103 -237,103 -333Q103 -454,146.5 -551Q190 -648,259 -714Q328 -780,405.5 -809.5Q483 -839,552 -825.55Q621 -812,664.5 -750Q708 -688,708 -570Q708 -457,658 -360Q608 -263,538 -150Q523 -127,503.5 -131Q484 -135,474.5 -155Q465 -175,480 -196Q566 -322,566 -473Q566 -527,534 -551.5Q502 -576,455 -575.5Q408 -575,361 -554Q314 -533,282 -496Q250 -459,250 -410Q250 -364,313.5 -328Q377 -292,480.5 -265Q584 -238,706 -220.5Q828 -203,947.5 -194.5Q999 -191,1051 -189z" fill="rgba(0,244,0,.5)" />
  </svg> -->
  <!-- <svg viewBox="100 -835 1835 850" preserveAspectRatio="none">
    <path d="M1051 -189Q1132 -186,1159 -186Q1314 -186,1456 -198Q1598 -210,1713 -230.5Q1828 -251,1900 -275Q1928 -284,1929.5 -253.5Q1931 -223,1914.5 -185.5Q1898 -148,1870 -134Q1834 -117,1749 -93Q1664 -69,1549 -45.5Q1434 -22,1305 -6Q1176 10,1051 10z" fill="rgba(244,0,0,.5)" />
  </svg> -->
</svg>